HIERARCHY
ROOT SpineBase
{
  OFFSET 0.000000 0.000000 0.000000
  CHANNELS 6 Xposition Yposition Zposition Zrotation Xrotation Yrotation
  JOINT SpineMid
  {
    OFFSET -0.000000 28.677988 0.000000
    CHANNELS 3 Zrotation Xrotation Yrotation
    JOINT SpineShoulder
    {
      OFFSET -0.029931 21.283139 -0.411688
      CHANNELS 3 Zrotation Xrotation Yrotation
      JOINT Neck
      {
        OFFSET -0.009239 6.990202 -0.411500
        CHANNELS 3 Zrotation Xrotation Yrotation
        JOINT Head
        {
          OFFSET -2.658339 12.922730 -1.682288
          CHANNELS 3 Zrotation Xrotation Yrotation
          End Site
          {
            OFFSET 0 0 0
          }
        }
      }
      JOINT ShoulderLeft
      {
        OFFSET -14.999377 -4.057103 7.501177
        CHANNELS 3 Zrotation Xrotation Yrotation
        JOINT ElbowLeft
        {
          OFFSET 1.160561 -17.340035 -11.875413
          CHANNELS 3 Zrotation Xrotation Yrotation
          JOINT WristLeft
          {
            OFFSET 6.788059 -16.360245 -10.634771
            CHANNELS 3 Zrotation Xrotation Yrotation
            JOINT HandLeft
            {
              OFFSET 5.357998 -17.669221 -3.976111
              CHANNELS 3 Zrotation Xrotation Yrotation
              JOINT HandTipLeft
              {
                OFFSET 2.693406 -5.522151 -1.181556
                CHANNELS 3 Zrotation Xrotation Yrotation
                End Site
                {
                  OFFSET 0 0 0
                }
              }
              JOINT ThumbLeft
              {
                OFFSET 4.192923 3.071918 -2.033156
                CHANNELS 3 Zrotation Xrotation Yrotation
                End Site
                {
                  OFFSET 0 0 0
                }
              }
            }
          }
        }
      }
      JOINT ShoulderRight
      {
        OFFSET 11.999284 -4.691691 -9.038638
        CHANNELS 3 Zrotation Xrotation Yrotation
        JOINT ElbowRight
        {
          OFFSET 7.510206 -18.560818 1.439204
          CHANNELS 3 Zrotation Xrotation Yrotation
          JOINT WristRight
          {
            OFFSET -15.751932 -9.046560 -9.949991
            CHANNELS 3 Zrotation Xrotation Yrotation
            JOINT HandRight
            {
              OFFSET -6.413825 -4.414589 -3.065276
              CHANNELS 3 Zrotation Xrotation Yrotation
              JOINT HandTipRight
              {
                OFFSET -5.277319 -4.420693 -1.276382
                CHANNELS 3 Zrotation Xrotation Yrotation
                End Site
                {
                  OFFSET 0 0 0
                }
              }
              JOINT ThumbRight
              {
                OFFSET -5.384405 1.151082 -1.472864
                CHANNELS 3 Zrotation Xrotation Yrotation
                End Site
                {
                  OFFSET 0 0 0
                }
              }
            }
          }
        }
      }
    }
  }
  JOINT HipLeft
  {
    OFFSET -5.200469 -0.006593 -0.665589
    CHANNELS 3 Zrotation Xrotation Yrotation
    JOINT KneeLeft
    {
      OFFSET -3.176352 -33.649499 0.487470
      CHANNELS 3 Zrotation Xrotation Yrotation
      JOINT AnkleLeft
      {
        OFFSET 12.933598 -27.901398 1.155140
        CHANNELS 3 Zrotation Xrotation Yrotation
        JOINT FootLeft
        {
          OFFSET 7.280207 -3.000917 -6.486948
          CHANNELS 3 Zrotation Xrotation Yrotation
          End Site
          {
            OFFSET 0 0 0
          }
        }
      }
    }
  }
  JOINT HipRight
  {
    OFFSET 4.807464 0.786862 -5.758618
    CHANNELS 3 Zrotation Xrotation Yrotation
    JOINT KneeRight
    {
      OFFSET 0.782006 -34.555689 -6.444928
      CHANNELS 3 Zrotation Xrotation Yrotation
      JOINT AnkleRight
      {
        OFFSET 8.726157 -29.565469 6.311321
        CHANNELS 3 Zrotation Xrotation Yrotation
        JOINT FootRight
        {
          OFFSET -4.255936 -3.808751 -9.913304
          CHANNELS 3 Zrotation Xrotation Yrotation
          End Site
          {
            OFFSET 0 0 0
          }
        }
      }
    }
  }
}
MOTION
Frames: 15
Frame Time: 0.033333
16.455592 72.964010 340.211362 2.563369 -5.532618 42.683784 -1.012712 -0.497833 -42.488815 -0.042207 -0.308492 0.090234 11.363054 25.514772 1.760013 0.000000 0.000000 0.000000 -43.748296 -64.690959 1.546926 -34.178630 -11.055695 -27.033556 9.223911 22.280991 -10.172749 -37.126489 -7.589024 58.959487 0.000000 0.000000 0.000000 0.000000 0.000000 0.000000 50.259832 39.699491 -4.611105 -117.873335 23.397770 8.664046 36.363430 -24.525931 -14.062709 -44.043543 -41.646239 11.968715 0.000000 0.000000 0.000000 0.000000 0.000000 0.000000 -9.039317 -17.020979 -41.316255 -13.781881 5.934617 -8.154915 -65.282888 -53.315213 -3.063533 0.000000 0.000000 0.000000 -5.952080 -22.075357 -47.066408 -19.061253 14.152465 3.972041 2.921084 3.827540 15.264040 0.000000 0.000000 0.000000
16.484086 72.719336 340.377228 2.236479 -5.925372 43.719845 -0.942177 -0.385476 -43.542217 -0.041371 -0.233107 0.075236 10.092384 25.225178 1.929586 0.000000 0.000000 0.000000 -61.267559 -73.095456 -10.170770 -30.172311 -2.503517 -25.297581 3.914825 19.552643 -4.617538 -32.420796 -6.240308 58.046829 0.000000 0.000000 0.000000 0.000000 0.000000 0.000000 50.726101 39.469458 -4.780433 -117.207643 21.727189 8.800457 42.941421 -17.364004 -21.016376 -46.592813 -52.287004 12.861448 0.000000 0.000000 0.000000 0.000000 0.000000 0.000000 -8.860690 -16.593044 -42.405672 -13.561851 5.877298 -8.167030 -64.932765 -53.656879 -1.988743 0.000000 0.000000 0.000000 -5.587256 -22.156909 -48.259011 -19.469125 14.231932 4.173857 1.724025 6.058015 14.521972 0.000000 0.000000 0.000000
16.522078 72.524374 340.633097 1.810343 -6.422579 44.806806 -0.878904 -0.209206 -44.652452 -0.076717 -0.192395 0.054894 9.295130 25.118374 2.041231 0.000000 0.000000 0.000000 -69.219705 -75.841358 -18.547449 -32.308346 -4.268354 -14.966164 0.237469 18.885575 -3.014396 -25.929153 -2.015139 54.857309 0.000000 0.000000 0.000000 0.000000 0.000000 0.000000 51.532444 39.573719 -5.106348 -115.861542 21.816128 7.646523 43.947394 -18.804088 -20.076495 -42.643881 -58.559815 19.229910 0.000000 0.000000 0.000000 0.000000 0.000000 0.000000 -8.508950 -15.939974 -43.552143 -13.361279 5.669358 -8.174147 -61.954586 -53.892917 2.422228 0.000000 0.000000 0.000000 -4.634135 -22.029572 -49.453967 -19.963375 13.661678 4.254948 2.142854 3.080719 18.426539 0.000000 0.000000 0.000000
16.576570 72.418681 340.908306 1.348446 -6.912936 45.767645 -0.872429 -0.058734 -45.640267 -0.135500 -0.176070 0.032824 8.426056 25.434944 2.213318 0.000000 0.000000 0.000000 -57.562392 -74.985700 -14.899355 -35.073656 -18.278299 16.259154 -3.640873 21.623896 -7.844740 -13.383911 7.797428 43.114811 0.000000 0.000000 0.000000 0.000000 0.000000 0.000000 51.827350 39.793098 -5.296403 -113.145538 22.446591 5.448167 39.173064 -25.552850 -12.830485 -33.956789 -51.862288 23.499606 0.000000 0.000000 0.000000 0.000000 0.000000 0.000000 -8.081445 -15.247109 -44.576124 -13.058474 5.391602 -8.202582 -65.181831 -54.322757 -1.467284 0.000000 0.000000 0.000000 -3.341123 -21.723838 -50.455778 -20.374209 12.607288 4.180908 1.908901 2.740265 19.945473 0.000000 0.000000 0.000000
16.595308 72.417947 341.250465 0.871306 -7.420131 46.797225 -0.845385 0.090475 -46.700992 -0.225023 -0.183262 0.011499 7.704722 25.800355 2.377887 0.000000 0.000000 0.000000 -40.085836 -70.245970 -5.796292 -35.951307 -34.878600 39.534777 -7.046730 25.396657 -7.951376 -2.869329 11.756440 19.548007 0.000000 0.000000 0.000000 0.000000 0.000000 0.000000 50.674042 40.129544 -4.995750 -108.447092 22.997772 2.300956 36.390195 -29.449297 -7.316674 -33.141263 -43.497726 21.449770 0.000000 0.000000 0.000000 0.000000 0.000000 0.000000 -7.342383 -14.392760 -45.662964 -12.766035 4.784068 -8.253809 -66.302072 -53.522833 -4.132536 0.000000 0.000000 0.000000 -1.597299 -21.215464 -51.468054 -20.815459 10.950544 3.969379 1.742058 2.695054 20.971547 0.000000 0.000000 0.000000
16.615610 72.517265 341.595242 0.461752 -7.815492 47.700349 -0.787672 0.212859 -47.634677 -0.292741 -0.189080 -0.005618 6.946992 26.033285 2.553659 0.000000 0.000000 0.000000 -25.889122 -61.387938 0.271875 -32.655607 -47.775792 68.701978 -1.365327 32.105272 -24.446147 1.105235 13.041922 1.402273 0.000000 0.000000 0.000000 0.000000 0.000000 0.000000 48.152954 40.949635 -4.167409 -102.584181 23.218357 -1.441492 34.120878 -33.536034 -1.458542 -32.221712 -33.242931 18.146824 0.000000 0.000000 0.000000 0.000000 0.000000 0.000000 -6.569950 -13.495471 -46.614778 -12.427032 4.008348 -8.327983 -64.102158 -52.313344 -2.924619 0.000000 0.000000 0.000000 0.395043 -20.473115 -52.264898 -21.121004 8.750547 3.570166 1.574166 2.876531 21.784542 0.000000 0.000000 0.000000
16.639730 72.728322 341.882278 0.088298 -8.066931 48.405115 -0.816073 0.308213 -48.367133 -0.348812 -0.201432 -0.023118 6.233650 25.986129 2.697498 0.000000 0.000000 0.000000 -20.226217 -56.565050 1.280080 -28.081069 -44.197980 101.180492 -0.354932 36.714612 -45.360026 7.715648 15.550519 -13.171390 0.000000 0.000000 0.000000 0.000000 0.000000 0.000000 44.604096 41.942586 -2.863959 -95.937667 23.150410 -5.395951 32.958949 -35.456897 2.826988 -36.205831 -30.068652 17.652656 0.000000 0.000000 0.000000 0.000000 0.000000 0.000000 -5.817641 -12.713591 -47.371237 -12.149533 3.112373 -8.436366 -59.698582 -50.854820 1.139414 0.000000 0.000000 0.000000 0.864022 -20.328948 -53.003793 -20.966630 8.516329 3.511432 1.416244 2.733069 21.844726 0.000000 0.000000 0.000000
16.703150 72.999213 342.016020 -0.259603 -8.177477 48.961385 -0.798099 0.339680 -48.954832 -0.338021 -0.178802 -0.037236 5.638038 25.739293 2.802772 0.000000 0.000000 0.000000 -17.625632 -53.857434 1.580205 -31.766811 -35.604552 122.342133 0.209041 40.349102 -46.097925 16.598505 12.682169 -36.238962 0.000000 0.000000 0.000000 0.000000 0.000000 0.000000 39.632612 43.433659 -0.843613 -88.387679 21.504157 -9.468183 30.664191 -37.303433 6.658283 -37.173733 -21.936675 15.187148 0.000000 0.000000 0.000000 0.000000 0.000000 0.000000 -5.272265 -12.187592 -47.987293 -12.290368 2.312722 -8.529354 -48.030215 -47.361203 14.445549 0.000000 0.000000 0.000000 2.211119 -19.538148 -53.390308 -20.753316 6.536229 2.959088 1.397031 3.436854 21.472199 0.000000 0.000000 0.000000
16.804610 73.303552 342.008483 -0.528571 -8.159481 49.423583 -0.869434 0.323878 -49.441041 -0.300229 -0.189143 -0.050006 5.554483 25.450397 2.791435 0.000000 0.000000 0.000000 -20.448057 -53.987447 3.157102 -37.869267 -22.748728 133.443798 1.299983 43.533660 -59.411059 19.623947 11.463631 -45.369586 0.000000 0.000000 0.000000 0.000000 0.000000 0.000000 34.635811 44.448669 1.274213 -80.085556 19.374191 -13.848370 28.901274 -40.121668 12.592471 -42.853054 -4.873423 12.471323 0.000000 0.000000 0.000000 0.000000 0.000000 0.000000 -4.951243 -11.880238 -48.503125 -12.321956 1.771349 -8.588336 -41.689427 -44.062954 21.515800 0.000000 0.000000 0.000000 0.637817 -19.877659 -53.991002 -19.972181 8.008112 3.020321 1.466957 3.627083 20.558940 0.000000 0.000000 0.000000
16.861715 73.521715 341.937761 -0.756021 -8.037783 49.772474 -0.847753 0.259126 -49.815459 -0.223562 -0.158127 -0.057351 5.301439 24.486399 2.705197 0.000000 0.000000 0.000000 -25.483070 -55.288012 5.066193 -39.803101 -13.108241 136.458485 0.157568 46.989554 -64.579034 18.865850 10.685537 -29.042365 0.000000 0.000000 0.000000 0.000000 0.000000 0.000000 30.013795 44.077852 3.188920 -76.130217 16.996333 -13.717531 24.188369 -36.688848 9.406443 -46.041096 0.944305 10.485782 0.000000 0.000000 0.000000 0.000000 0.000000 0.000000 -4.772999 -11.928064 -48.907957 -12.537610 1.508961 -8.582410 -40.529309 -43.502632 22.758460 0.000000 0.000000 0.000000 -0.673266 -20.342624 -54.496379 -19.488412 9.267887 3.128217 1.583286 3.888344 19.410140 0.000000 0.000000 0.000000
16.931163 73.626726 341.870527 -0.851267 -7.892266 49.911010 -0.738350 0.175249 -49.969854 -0.120982 -0.079515 -0.056126 3.769662 22.662664 2.648519 0.000000 0.000000 0.000000 -22.278987 -50.533518 5.733024 -43.865356 -16.986074 139.594788 3.505385 47.181173 -68.819884 19.168259 7.163022 4.113702 0.000000 0.000000 0.000000 0.000000 0.000000 0.000000 27.061830 42.461716 4.170546 -76.204694 16.304687 -10.756396 20.760532 -35.030220 6.630155 -44.694749 -0.913951 9.205944 0.000000 0.000000 0.000000 0.000000 0.000000 0.000000 -4.767912 -12.135381 -49.077860 -12.840364 1.498919 -8.534495 -45.679456 -47.449155 17.990816 0.000000 0.000000 0.000000 -1.835533 -20.735740 -54.769462 -19.098291 10.522932 3.285314 1.583817 3.719678 19.030826 0.000000 0.000000 0.000000
16.960982 73.603249 341.803143 -0.948945 -7.707692 50.205406 -0.683313 0.128016 -50.276268 -0.057356 -0.021653 -0.057167 2.905682 20.718823 2.440538 0.000000 0.000000 0.000000 -23.508015 -49.693813 6.702201 -44.132779 -16.232241 137.757661 4.595288 46.126602 -69.522389 28.571916 8.809410 52.393643 0.000000 0.000000 0.000000 0.000000 0.000000 0.000000 26.162037 40.176650 4.210575 -79.777504 16.863236 -5.830338 17.368043 -32.564486 2.574410 -42.553579 -2.874810 6.830200 0.000000 0.000000 0.000000 0.000000 0.000000 0.000000 -4.854218 -12.516790 -49.413657 -13.163031 1.579511 -8.485621 -44.430401 -46.883863 19.343125 0.000000 0.000000 0.000000 -3.022731 -21.359976 -55.277911 -18.949320 11.917179 3.570022 1.508593 3.284024 19.131123 0.000000 0.000000 0.000000
17.079120 73.415450 341.718546 -0.950229 -7.555314 50.566361 -0.661886 0.115319 -50.637842 -0.071713 -0.025232 -0.056177 2.553913 18.946959 2.160253 0.000000 0.000000 0.000000 -24.773289 -49.486125 7.446131 -53.919442 -3.610165 152.005519 8.587169 48.572894 -95.558657 44.223963 26.542736 86.023005 0.000000 0.000000 0.000000 0.000000 0.000000 0.000000 27.709851 39.368834 3.600460 -85.678352 17.230926 -1.510121 13.326457 -33.573907 0.656868 -41.218878 -9.379605 6.658301 0.000000 0.000000 0.000000 0.000000 0.000000 0.000000 -5.364832 -12.828931 -49.802354 -13.326030 2.046331 -8.392195 -40.930299 -44.530067 22.555212 0.000000 0.000000 0.000000 -4.033979 -21.816691 -55.823218 -18.856796 13.027164 3.814838 1.375026 2.812642 19.514699 0.000000 0.000000 0.000000
16.934260 73.356253 341.751453 -1.303549 -7.578417 50.422691 -0.507480 -0.017424 -50.535482 -0.019417 0.020023 -0.062014 2.509847 17.681888 1.930465 0.000000 0.000000 0.000000 -26.007696 -50.950826 7.415494 -76.024506 12.440632 178.446436 8.001077 52.320954 -108.516545 66.107715 29.516622 82.341164 0.000000 0.000000 0.000000 0.000000 0.000000 0.000000 30.314066 39.438166 2.769173 -91.548794 18.367232 1.389318 5.676610 -39.400209 1.333056 -35.351133 -3.781722 4.033922 0.000000 0.000000 0.000000 0.000000 0.000000 0.000000 -4.531483 -13.679665 -49.732188 -14.262863 2.063568 -8.201332 -37.621285 -41.573376 25.034896 0.000000 0.000000 0.000000 -4.088132 -22.564025 -55.897132 -19.102012 13.815305 4.122398 1.276702 2.457429 19.640586 0.000000 0.000000 0.000000
16.574673 73.435821 341.917743 -1.836788 -7.684998 50.201854 -0.333089 -0.196862 -50.375658 0.064185 0.085081 -0.072867 3.243514 16.921416 1.718910 0.000000 0.000000 0.000000 -30.944951 -55.232407 7.587562 -104.555725 23.111338 -150.514826 -6.848605 47.199642 -59.152931 70.340969 -20.740731 61.814703 0.000000 0.000000 0.000000 0.000000 0.000000 0.000000 33.684598 40.128071 1.730194 -98.180278 19.412674 4.253976 2.144047 -45.954162 0.803134 -26.683372 -13.559776 1.121401 0.000000 0.000000 0.000000 0.000000 0.000000 0.000000 -2.813500 -14.769234 -49.577668 -15.663194 1.674984 -7.966436 -37.565808 -40.209584 22.722980 0.000000 0.000000 0.000000 -3.344741 -23.431123 -55.881702 -19.704361 14.034484 4.442370 1.215271 2.264823 19.592587 0.000000 0.000000 0.000000
